<svg xmlns="http://www.w3.org/2000/svg" width="100" height="100" viewBox="0 0 100 100">
    <defs>
        <linearGradient id="5bfp7es9pa" x1=".5" x2=".5" y2="1" gradientUnits="objectBoundingBox">
            <stop offset="0" stop-color="#b29ecc"/>
            <stop offset="1" stop-color="#5f8ebe"/>
        </linearGradient>
        <clipPath id="0tonm6qcgb">
            <path data-name="Rectangle 507" style="fill:url(#5bfp7es9pa)" d="M0 0h34.993v43.086H0z"/>
        </clipPath>
    </defs>
    <g data-name="Group 2330">
        <g data-name="Group 2329">
            <g data-name="Ellipse 456" transform="translate(7 7)" style="fill:#fff;stroke:#e1ecf2;stroke-width:7px">
                <circle cx="43" cy="43" r="43" style="stroke:none"/>
                <circle cx="43" cy="43" r="46.5" style="fill:none"/>
            </g>
            <g data-name="Group 2277">
                <g data-name="Group 1859" transform="translate(32.504 28.457)" style="clip-path:url(#0tonm6qcgb)">
                    <path data-name="Path 9753" d="M28.515 43.086H6.476A6.486 6.486 0 0 1 1.9 41.229a6.314 6.314 0 0 1-1.9-4.54V22.378A6.571 6.571 0 0 1 1.241 18.5a6.176 6.176 0 0 1 3.2-2.309V11.67a11.368 11.368 0 0 1 .937-4.534 11.717 11.717 0 0 1 2.538-3.711A11.862 11.862 0 0 1 11.655.918 11.58 11.58 0 0 1 16.188 0H18.8a11.272 11.272 0 0 1 4.5.924 11.412 11.412 0 0 1 3.651 2.513 11.76 11.76 0 0 1 3.345 8.236v4.521a6.332 6.332 0 0 1 4.7 6.187v14.308a6.317 6.317 0 0 1-1.9 4.539 6.485 6.485 0 0 1-4.58 1.857M16.973 27.939a1.569 1.569 0 0 0-1.568 1.566v4.963a1.567 1.567 0 0 0 3.133 0v-4.962a1.568 1.568 0 0 0-1.565-1.567m-.785-24.807a8.458 8.458 0 0 0-3.318.678 8.756 8.756 0 0 0-2.74 1.84 8.655 8.655 0 0 0-1.867 2.716 8.255 8.255 0 0 0-.688 3.306v4.257h19.582v-4.256a8.686 8.686 0 0 0-.648-3.306A8.557 8.557 0 0 0 24.73 5.65a8.206 8.206 0 0 0-5.93-2.518z" style="fill:url(#5bfp7es9pa)"/>
                </g>
            </g>
        </g>
    </g>
</svg>
