<svg xmlns="http://www.w3.org/2000/svg" xmlns:xlink="http://www.w3.org/1999/xlink" width="138" height="138" viewBox="0 0 138 138">
    <defs>
        <linearGradient id="3izbe049gc" x1=".189" y1=".894" x2=".774" y2=".153" gradientUnits="objectBoundingBox">
            <stop offset="0" stop-color="#ffa300"/>
            <stop offset="1" stop-color="#ffcd00"/>
        </linearGradient>
        <linearGradient id="x3yxrqx2ya" x1="5.173" y1="-.171" x2="-10.881" y2="2.02" gradientUnits="objectBoundingBox">
            <stop offset="0" stop-color="#c56515"/>
            <stop offset="1" stop-color="#a84013"/>
        </linearGradient>
        <linearGradient id="deu1fv868d" x1="12.505" y1="-1.105" x2="-3.549" y2="1.086" xlink:href="#x3yxrqx2ya"/>
        <linearGradient id="3sxeton8de" x1="1.666" y1="-13.886" x2="-.052" y2="6.957" xlink:href="#x3yxrqx2ya"/>
        <linearGradient id="1d9q2w7dkf" x1="1.119" y1="-6.767" x2="-.599" y2="14.076" xlink:href="#x3yxrqx2ya"/>
        <linearGradient id="byeslliirg" x1="1.06" y1="-.196" x2="-1.231" y2="2.775" xlink:href="#x3yxrqx2ya"/>
        <linearGradient id="pghqn9d1ih" x1="2.32" y1="-1.891" x2=".029" y2="1.081" xlink:href="#x3yxrqx2ya"/>
        <linearGradient id="ao0zvmfjyi" x1="1.749" y1="-1.171" x2="-.542" y2="1.8" xlink:href="#x3yxrqx2ya"/>
        <linearGradient id="nc7o8g2esj" x1="1.631" y1="-.915" x2="-.66" y2="2.056" xlink:href="#x3yxrqx2ya"/>
        <linearGradient id="vi54ti3rkk" x1="5.857" y1="-1.216" x2="-.88" y2="1.028" xlink:href="#x3yxrqx2ya"/>
        <linearGradient id="lt32csl8fl" x1="2.142" y1="-.115" x2="-4.595" y2="2.129" xlink:href="#x3yxrqx2ya"/>
        <linearGradient id="l9qb9wqgym" x1="1.622" y1="-5.104" x2="-.136" y2="3.759" xlink:href="#x3yxrqx2ya"/>
        <linearGradient id="0ld58ioasn" x1="1.204" y1="-3.104" x2="-.554" y2="5.759" xlink:href="#x3yxrqx2ya"/>
        <linearGradient id="imlogfd4so" x1="1.024" y1="-.412" x2="-.979" y2="3.367" xlink:href="#x3yxrqx2ya"/>
        <linearGradient id="pvk84u55dp" x1="2.057" y1="-2.514" x2=".054" y2="1.266" xlink:href="#x3yxrqx2ya"/>
        <linearGradient id="cxh6hcvm5q" x1="2.236" y1="-1.083" x2="-.658" y2="1.498" xlink:href="#x3yxrqx2ya"/>
        <linearGradient id="cnt8thmnrr" x1="1.771" y1="-.598" x2="-1.123" y2="1.982" xlink:href="#x3yxrqx2ya"/>
        <linearGradient id="l30ds6vybs" x1="3.808" y1="-1.341" x2="-.26" y2="1.006" xlink:href="#x3yxrqx2ya"/>
        <linearGradient id="jek9rihkwt" x1="1.418" y1="-.097" x2="-2.65" y2="2.25" xlink:href="#x3yxrqx2ya"/>
        <linearGradient id="bv3w67p46u" x1="1.591" y1="-2.618" x2="-.241" y2="2.722" xlink:href="#x3yxrqx2ya"/>
        <linearGradient id="yfj8p0xdbv" x1="1.313" y1="-1.929" x2="-.52" y2="3.411" xlink:href="#x3yxrqx2ya"/>
        <linearGradient id="1j66z9n6hw" x1="1.893" y1="-3.451" x2=".046" y2="1.637" xlink:href="#x3yxrqx2ya"/>
        <linearGradient id="yl0d2q9y0x" x1="1.025" y1="-.835" x2="-.821" y2="4.253" xlink:href="#x3yxrqx2ya"/>
        <linearGradient id="y975m0h8py" x1="3.011" y1="-1.056" x2="-.866" y2="1.311" xlink:href="#x3yxrqx2ya"/>
        <linearGradient id="in2r17s1az" x1="2.016" y1="-.403" x2="-1.861" y2="1.964" xlink:href="#x3yxrqx2ya"/>
        <linearGradient id="d0ozc51fdA" x1="2.813" y1="-1.537" x2="-.04" y2="1.016" xlink:href="#x3yxrqx2ya"/>
        <linearGradient id="xtdybkqygB" x1="1.151" y1="-.116" x2="-1.702" y2="2.438" xlink:href="#x3yxrqx2ya"/>
        <linearGradient id="1lsneuv5gC" x1="1.476" y1="-1.397" x2="-.506" y2="2.328" xlink:href="#x3yxrqx2ya"/>
        <linearGradient id="xm4fablasD" x1="1.583" y1="-1.473" x2="-.399" y2="2.253" xlink:href="#x3yxrqx2ya"/>
        <linearGradient id="5qf336ni7E" x1="1.054" y1="-2.12" x2="-.681" y2="6.732" xlink:href="#x3yxrqx2ya"/>
        <linearGradient id="k6d2028duF" x1="1.748" y1="-6.076" x2=".013" y2="2.776" xlink:href="#x3yxrqx2ya"/>
        <linearGradient id="cqhzedv4xG" x1="2.829" y1="-.256" x2="-3.9" y2="1.96" xlink:href="#x3yxrqx2ya"/>
        <linearGradient id="9oyazk1xsH" x1="5.161" y1="-1.046" x2="-1.567" y2="1.17" xlink:href="#x3yxrqx2ya"/>
        <linearGradient id="r3xc425dvI" x1=".267" y1=".876" x2=".699" y2=".179" xlink:href="#x3yxrqx2ya"/>
        <linearGradient id="jjizs05a0J" x1=".174" y1=".911" x2=".91" y2="-.016" gradientUnits="objectBoundingBox">
            <stop offset="0" stop-color="#e27212"/>
            <stop offset="1" stop-color="#ffcd00"/>
        </linearGradient>
        <linearGradient id="jhnqdvy0pK" x1=".238" y1=".808" x2=".843" y2=".096" xlink:href="#x3yxrqx2ya"/>
        <linearGradient id="rfz3pc4akL" x1=".268" y1=".852" x2=".764" y2=".099" gradientUnits="objectBoundingBox">
            <stop offset="0" stop-color="#fbbc00"/>
            <stop offset="1" stop-color="#ffe000"/>
        </linearGradient>
        <linearGradient id="izv66r6okM" x1="5.171" y1="-.171" x2="-10.877" y2="2.02" xlink:href="#x3yxrqx2ya"/>
        <linearGradient id="mpird1ppnN" x1="12.5" y1="-1.105" x2="-3.548" y2="1.086" xlink:href="#x3yxrqx2ya"/>
        <linearGradient id="ihn9maihtO" x1="1.666" y1="-13.886" x2="-.052" y2="6.957" xlink:href="#x3yxrqx2ya"/>
        <linearGradient id="zzu8jf3bfP" x1="1.119" y1="-6.767" x2="-.599" y2="14.076" xlink:href="#x3yxrqx2ya"/>
        <linearGradient id="hvotav36mQ" x1="2.32" y1="-1.891" x2=".029" y2="1.081" xlink:href="#x3yxrqx2ya"/>
        <linearGradient id="5w7nxh2trR" x1="5.858" y1="-1.216" x2="-.88" y2="1.028" xlink:href="#x3yxrqx2ya"/>
        <linearGradient id="eywo6md4gS" x1="2.142" y1="-.115" x2="-4.596" y2="2.129" xlink:href="#x3yxrqx2ya"/>
        <linearGradient id="4uumnro79T" x1="1.622" y1="-5.104" x2="-.136" y2="3.759" xlink:href="#x3yxrqx2ya"/>
        <linearGradient id="nxxj34dyqU" x1="2.057" y1="-2.514" x2=".054" y2="1.266" xlink:href="#x3yxrqx2ya"/>
        <linearGradient id="akqsapl4lV" x1="2.236" y1="-1.083" x2="-.658" y2="1.498" xlink:href="#x3yxrqx2ya"/>
        <linearGradient id="ud10jwqgyW" x1="1.771" y1="-.598" x2="-1.123" y2="1.982" xlink:href="#x3yxrqx2ya"/>
        <linearGradient id="2em4bfjruX" x1="1.418" y1="-.097" x2="-2.65" y2="2.25" xlink:href="#x3yxrqx2ya"/>
        <linearGradient id="4mt0szar6Y" x1="1.591" y1="-2.618" x2="-.241" y2="2.722" xlink:href="#x3yxrqx2ya"/>
        <linearGradient id="guh1yd97lZ" x1="1.313" y1="-1.929" x2="-.52" y2="3.411" xlink:href="#x3yxrqx2ya"/>
        <linearGradient id="ey0qaco37aa" x1="1.893" y1="-3.451" x2=".046" y2="1.637" xlink:href="#x3yxrqx2ya"/>
        <linearGradient id="sytyi0cgvab" x1="3.011" y1="-1.056" x2="-.866" y2="1.311" xlink:href="#x3yxrqx2ya"/>
        <linearGradient id="w0vw9c3d6ac" x1="2.016" y1="-.403" x2="-1.86" y2="1.964" xlink:href="#x3yxrqx2ya"/>
        <linearGradient id="nuboccq6uad" x1="1.151" y1="-.116" x2="-1.702" y2="2.438" xlink:href="#x3yxrqx2ya"/>
        <linearGradient id="yu1mtl2syae" x1="2.829" y1="-.256" x2="-3.9" y2="1.96" xlink:href="#x3yxrqx2ya"/>
        <linearGradient id="f364lxejiaf" x1="5.162" y1="-1.046" x2="-1.568" y2="1.17" xlink:href="#x3yxrqx2ya"/>
        <filter id="2cqtchg5cb" x="0" y="0" width="138" height="138" filterUnits="userSpaceOnUse">
            <feOffset dx="-10" dy="5"/>
            <feGaussianBlur stdDeviation="14.5" result="blur"/>
            <feFlood flood-opacity=".161"/>
            <feComposite operator="in" in2="blur"/>
            <feComposite in="SourceGraphic"/>
        </filter>
    </defs>
    <g data-name="Group 814">
        <g style="filter:url(#2cqtchg5cb)">
            <circle data-name="Ellipse 154" cx="25.5" cy="25.5" r="25.5" transform="translate(53.499 38.5)" style="fill:#fff"/>
        </g>
        <g data-name="Group 813">
            <g data-name="Group 808" transform="translate(63.789 52.758)">
                <ellipse data-name="Ellipse 161" cx="12.241" cy="12.416" rx="12.241" ry="12.416" style="fill:url(#3izbe049gc)"/>
                <g data-name="Group 805">
                    <path data-name="Path 8649" d="m501.721 341.113.517-2.541V331.3a11.036 11.036 0 0 0-1.033 0v7.279z" transform="translate(-489.481 -331.287)" style="fill:url(#x3yxrqx2ya);opacity:.3"/>
                    <path data-name="Path 8650" d="m501.721 369.369-.517 2.541v7.273c.171.007.343.013.517.013s.345-.006.516-.013V371.9z" transform="translate(-489.481 -354.364)" style="fill:url(#deu1fv868d);opacity:.3"/>
                    <path data-name="Path 8651" d="m481.1 362-2.541-.517h-7.1c-.007.171-.013.343-.013.517s.006.345.013.517h7.1z" transform="translate(-471.449 -349.588)" style="fill:url(#3sxeton8de);opacity:.3"/>
                    <path data-name="Path 8652" d="m509.087 362 2.541.517h7.1c.007-.172.013-.344.013-.517s-.006-.345-.013-.517h-7.1z" transform="translate(-494.257 -349.588)" style="fill:url(#1d9q2w7dkf);opacity:.3"/>
                    <path data-name="Path 8653" d="m507.162 347.005 2.162-1.431 5.076-5.074c-.23-.257-.472-.5-.722-.739l-5.09 5.089z" transform="translate(-493.09 -336.421)" style="fill:url(#byeslliirg);opacity:.3"/>
                    <path data-name="Path 8654" d="m486.737 367.445-2.162 1.431-5.076 5.076c.23.257.472.5.722.739l5.089-5.089z" transform="translate(-476.327 -353.198)" style="fill:url(#pghqn9d1ih);opacity:.3"/>
                    <path data-name="Path 8655" d="m507.163 367.444 1.431 2.162 5.085 5.085c.25-.237.492-.482.722-.739l-5.081-5.081z" transform="translate(-493.091 -353.198)" style="fill:url(#ao0zvmfjyi);opacity:.3"/>
                    <path data-name="Path 8656" d="m486.737 347.006-1.431-2.162-5.085-5.085c-.25.237-.492.482-.722.739l5.081 5.081z" transform="translate(-476.327 -336.421)" style="fill:url(#nc7o8g2esj);opacity:.3"/>
                    <path data-name="Path 8657" d="m497.42 369.546-1.112 2.753-1.349 6.632q.5.126 1.011.21l1.45-7.125z" transform="translate(-485.696 -354.471)" style="fill:url(#vi54ti3rkk);opacity:.3"/>
                    <path data-name="Path 8658" d="m503.826 341.292 1.111-2.753 1.35-6.633q-.5-.126-1.011-.21l-1.45 7.124z" transform="translate(-491.069 -331.535)" style="fill:url(#lt32csl8fl);opacity:.3"/>
                    <path data-name="Path 8659" d="m481.26 357.751-2.753-1.112-6.48-1.318a11.7 11.7 0 0 0-.2 1.013l6.962 1.417z" transform="translate(-471.677 -345.851)" style="fill:url(#l9qb9wqgym);opacity:.3"/>
                    <path data-name="Path 8660" d="m509.264 364.109 2.753 1.111 6.479 1.318c.08-.333.149-.671.2-1.013l-6.962-1.416z" transform="translate(-494.364 -351.177)" style="fill:url(#0ld58ioasn);opacity:.3"/>
                    <path data-name="Path 8661" d="m508.214 350.19 2.732-1.16 5.543-3.669q-.262-.447-.561-.868l-5.968 3.95z" transform="translate(-493.728 -339.29)" style="fill:url(#imlogfd4so);opacity:.3"/>
                    <path data-name="Path 8662" d="m484.089 366.642-2.732 1.161-5.544 3.669q.262.446.561.867l5.968-3.95z" transform="translate(-474.094 -352.712)" style="fill:url(#pvk84u55dp);opacity:.3"/>
                    <path data-name="Path 8663" d="m506.36 368.5 1.161 2.733 3.715 5.612c.293-.182.577-.377.853-.583l-3.981-6.015z" transform="translate(-492.605 -353.835)" style="fill:url(#cxh6hcvm5q);opacity:.3"/>
                    <path data-name="Path 8664" d="m489.861 344.265-1.16-2.732-3.715-5.613q-.439.273-.853.583l3.981 6.015z" transform="translate(-479.135 -334.095)" style="fill:url(#cnt8thmnrr);opacity:.3"/>
                    <path data-name="Path 8665" d="m493.618 369.149-1.364 2.061-2.712 6.717c.311.145.628.28.953.4l2.531-6.268z" transform="translate(-482.413 -354.231)" style="fill:url(#l30ds6vybs);opacity:.3"/>
                    <path data-name="Path 8666" d="m505.145 342.333 1.364-2.061 2.712-6.718c-.311-.145-.628-.28-.953-.4l-2.531 6.268z" transform="translate(-491.868 -332.42)" style="fill:url(#jek9rihkwt);opacity:.3"/>
                    <path data-name="Path 8667" d="m482.247 353.966-2.061-1.363-6.61-2.669a12.69 12.69 0 0 0-.378.961l6.14 2.479z" transform="translate(-472.509 -342.587)" style="fill:url(#bv3w67p46u);opacity:.3"/>
                    <path data-name="Path 8668" d="m508.867 365.427 2.061 1.364 6.61 2.669q.208-.471.378-.961l-6.14-2.48z" transform="translate(-494.124 -351.975)" style="fill:url(#yfj8p0xdbv);opacity:.3"/>
                    <path data-name="Path 8669" d="m482.358 365.429-2.422.493-6.556 2.784c.119.325.251.643.4.954l6.107-2.593z" transform="translate(-472.619 -351.977)" style="fill:url(#1j66z9n6hw);opacity:.3"/>
                    <path data-name="Path 8670" d="m508.866 353.657 2.421-.493 6.557-2.785a11.098 11.098 0 0 0-.4-.954l-6.106 2.594z" transform="translate(-494.123 -342.278)" style="fill:url(#yl0d2q9y0x);opacity:.3"/>
                    <path data-name="Path 8671" d="m505.147 369.148.493 2.422 2.835 6.676c.322-.125.639-.26.948-.411l-2.638-6.21z" transform="translate(-491.869 -354.23)" style="fill:url(#y975m0h8py);opacity:.3"/>
                    <path data-name="Path 8672" d="m493.307 342.455-.493-2.421-2.835-6.676c-.322.125-.639.261-.948.412l2.638 6.211z" transform="translate(-482.103 -332.542)" style="fill:url(#in2r17s1az);opacity:.3"/>
                    <path data-name="Path 8673" d="m489.951 368.278-1.829 1.829-3.983 6.021q.414.309.853.583l3.988-6.028z" transform="translate(-479.139 -353.703)" style="fill:url(#d0ozc51fdA);opacity:.3"/>
                    <path data-name="Path 8674" d="m506.142 344.348 1.829-1.829 3.983-6.021q-.414-.309-.853-.583l-3.988 6.028z" transform="translate(-492.472 -334.092)" style="fill:url(#xtdybkqygB);opacity:.3"/>
                    <path data-name="Path 8675" d="m508 366.424 1.829 1.829 5.974 3.952c.2-.281.386-.57.56-.868l-5.959-3.943z" transform="translate(-493.596 -352.579)" style="fill:url(#1lsneuv5gC);opacity:.3"/>
                    <path data-name="Path 8676" d="m484.172 350.281-1.829-1.829-5.973-3.952q-.3.421-.561.868l5.96 3.943z" transform="translate(-474.091 -339.294)" style="fill:url(#xm4fablasD);opacity:.3"/>
                    <path data-name="Path 8677" d="M508.955 357.746h2.586l6.968-1.42c-.053-.343-.121-.68-.2-1.013l-6.967 1.419z" transform="translate(-494.177 -345.846)" style="fill:url(#5qf336ni7E);opacity:.3"/>
                    <path data-name="Path 8678" d="M481.382 364.109H478.8l-6.968 1.419c.053.343.121.68.2 1.013l6.968-1.419z" transform="translate(-471.679 -351.177)" style="fill:url(#k6d2028duF);opacity:.3"/>
                    <path data-name="Path 8679" d="M497.416 341.414v-2.586l-1.453-7.13q-.513.084-1.011.21l1.45 7.12z" transform="translate(-485.691 -331.536)" style="fill:url(#cqhzedv4xG);opacity:.3"/>
                    <path data-name="Path 8680" d="M503.826 369.237v2.586l1.453 7.13q.513-.084 1.011-.21l-1.45-7.119z" transform="translate(-491.069 -354.284)" style="fill:url(#9oyazk1xsH);opacity:.3"/>
                </g>
                <ellipse data-name="Ellipse 162" cx="9.765" cy="9.905" rx="9.765" ry="9.905" transform="translate(2.475 2.511)" style="fill:url(#r3xc425dvI)"/>
                <ellipse data-name="Ellipse 163" cx="9.044" cy="9.173" rx="9.044" ry="9.173" transform="translate(3.224 3.195)" style="fill:url(#jjizs05a0J)"/>
                <g data-name="Group 806">
                    <path data-name="Path 8681" d="M495.557 357.989c-2.32-.223-4.044-1.415-4.185-3.688h3.7a.989.989 0 0 0 .486.89v-1.558c-1.724-.477-4.216-1.017-4.216-3.736 0-2.146 1.928-3.323 4.216-3.418v-1.288h.972v1.288c2.461.175 4 1.415 4.138 3.625h-3.746a1.016 1.016 0 0 0-.392-.81v1.542c1.708.557 4.326 1.081 4.326 3.752 0 1.876-1.536 3.37-4.326 3.434v1.272h-.972zm0-7.551v-1.272a.541.541 0 0 0-.486.572.82.82 0 0 0 .486.699zm.972 3.529v1.367a.67.67 0 0 0 .611-.668c0-.318-.235-.525-.611-.699z" transform="translate(-483.503 -339.713)" style="fill:url(#jhnqdvy0pK)"/>
                </g>
                <g data-name="Group 807">
                    <path data-name="Path 8682" d="M495 357.34c-2.32-.223-4.044-1.415-4.185-3.688h3.7a.991.991 0 0 0 .486.89v-1.558c-1.724-.477-4.216-1.017-4.216-3.736 0-2.146 1.928-3.322 4.216-3.418v-1.288h.972v1.288c2.461.175 4 1.415 4.138 3.625h-3.746a1.016 1.016 0 0 0-.392-.811v1.542c1.708.556 4.326 1.081 4.326 3.752 0 1.876-1.536 3.37-4.326 3.434v1.271H495zm0-7.551v-1.272a.542.542 0 0 0-.486.572.82.82 0 0 0 .486.699zm.972 3.529v1.367a.669.669 0 0 0 .612-.667c0-.318-.235-.526-.611-.7z" transform="translate(-483.166 -339.319)" style="fill:url(#rfz3pc4akL)"/>
                </g>
            </g>
            <g data-name="Group 812" transform="translate(71.114 52.758)">
                <ellipse data-name="Ellipse 164" cx="12.241" cy="12.416" rx="12.241" ry="12.416" style="fill:url(#3izbe049gc)"/>
                <g data-name="Group 809">
                    <path data-name="Path 8683" d="m520.312 341.113.517-2.541V331.3a11.036 11.036 0 0 0-1.033 0v7.279z" transform="translate(-508.072 -331.287)" style="fill:url(#izv66r6okM);opacity:.3"/>
                    <path data-name="Path 8684" d="m520.313 369.369-.517 2.541v7.273c.171.007.343.013.517.013s.345-.006.516-.013V371.9z" transform="translate(-508.072 -354.364)" style="fill:url(#mpird1ppnN);opacity:.3"/>
                    <path data-name="Path 8685" d="m499.692 362-2.541-.517h-7.1c-.007.171-.013.343-.013.517s.006.345.013.517h7.1z" transform="translate(-490.041 -349.588)" style="fill:url(#ihn9maihtO);opacity:.3"/>
                    <path data-name="Path 8686" d="m527.679 362 2.541.517h7.1c.007-.172.013-.344.013-.517s-.006-.345-.013-.517h-7.1z" transform="translate(-512.849 -349.588)" style="fill:url(#zzu8jf3bfP);opacity:.3"/>
                    <path data-name="Path 8687" d="m525.753 347.005 2.162-1.431 5.076-5.076c-.23-.257-.472-.5-.722-.739l-5.089 5.089z" transform="translate(-511.682 -336.421)" style="fill:url(#byeslliirg);opacity:.3"/>
                    <path data-name="Path 8688" d="m505.328 367.445-2.162 1.431-5.077 5.076c.23.257.472.5.722.739l5.09-5.089z" transform="translate(-494.919 -353.198)" style="fill:url(#hvotav36mQ);opacity:.3"/>
                    <path data-name="Path 8689" d="m525.754 367.444 1.431 2.162 5.085 5.085c.25-.237.492-.482.722-.739l-5.081-5.081z" transform="translate(-511.682 -353.198)" style="fill:url(#ao0zvmfjyi);opacity:.3"/>
                    <path data-name="Path 8690" d="m505.328 347.006-1.431-2.162-5.085-5.085c-.25.237-.492.482-.722.739l5.081 5.081z" transform="translate(-494.919 -336.421)" style="fill:url(#nc7o8g2esj);opacity:.3"/>
                    <path data-name="Path 8691" d="M516.012 369.546 514.9 372.3l-1.349 6.632q.5.126 1.011.21l1.449-7.125z" transform="translate(-504.288 -354.471)" style="fill:url(#5w7nxh2trR);opacity:.3"/>
                    <path data-name="Path 8692" d="m522.418 341.292 1.112-2.753 1.349-6.633q-.5-.126-1.011-.21l-1.449 7.124z" transform="translate(-509.661 -331.535)" style="fill:url(#eywo6md4gS);opacity:.3"/>
                    <path data-name="Path 8693" d="m499.851 357.751-2.753-1.112-6.48-1.318c-.08.333-.148.67-.2 1.013l6.962 1.417z" transform="translate(-490.269 -345.851)" style="fill:url(#4uumnro79T);opacity:.3"/>
                    <path data-name="Path 8694" d="m527.855 364.109 2.753 1.111 6.48 1.318c.08-.333.148-.671.2-1.013l-6.962-1.416z" transform="translate(-512.956 -351.177)" style="fill:url(#0ld58ioasn);opacity:.3"/>
                    <path data-name="Path 8695" d="m526.8 350.19 2.733-1.16 5.544-3.669c-.175-.3-.363-.587-.561-.868l-5.968 3.95z" transform="translate(-512.319 -339.29)" style="fill:url(#imlogfd4so);opacity:.3"/>
                    <path data-name="Path 8696" d="m502.68 366.642-2.733 1.161-5.544 3.669c.175.3.363.586.561.867l5.968-3.95z" transform="translate(-492.685 -352.712)" style="fill:url(#nxxj34dyqU);opacity:.3"/>
                    <path data-name="Path 8697" d="m524.951 368.5 1.161 2.733 3.715 5.612c.293-.182.577-.377.853-.583l-3.981-6.015z" transform="translate(-511.196 -353.835)" style="fill:url(#akqsapl4lV);opacity:.3"/>
                    <path data-name="Path 8698" d="m508.452 344.265-1.16-2.732-3.715-5.613q-.439.273-.853.583l3.981 6.015z" transform="translate(-497.727 -334.095)" style="fill:url(#ud10jwqgyW);opacity:.3"/>
                    <path data-name="Path 8699" d="m512.209 369.149-1.363 2.061-2.712 6.717c.311.145.628.28.953.4l2.531-6.268z" transform="translate(-501.004 -354.231)" style="fill:url(#l30ds6vybs);opacity:.3"/>
                    <path data-name="Path 8700" d="m523.737 342.333 1.363-2.061 2.712-6.718c-.311-.145-.628-.28-.953-.4l-2.531 6.268z" transform="translate(-510.46 -332.42)" style="fill:url(#2em4bfjruX);opacity:.3"/>
                    <path data-name="Path 8701" d="m500.838 353.966-2.061-1.363-6.61-2.669q-.208.47-.378.961l6.14 2.479z" transform="translate(-491.1 -342.587)" style="fill:url(#4mt0szar6Y);opacity:.3"/>
                    <path data-name="Path 8702" d="m527.458 365.427 2.061 1.364 6.61 2.669q.208-.471.378-.961l-6.14-2.48z" transform="translate(-512.715 -351.975)" style="fill:url(#guh1yd97lZ);opacity:.3"/>
                    <path data-name="Path 8703" d="m500.949 365.429-2.421.493-6.556 2.784c.119.325.252.643.4.954l6.107-2.593z" transform="translate(-491.211 -351.977)" style="fill:url(#ey0qaco37aa);opacity:.3"/>
                    <path data-name="Path 8704" d="m527.457 353.657 2.422-.493 6.556-2.785a11.098 11.098 0 0 0-.4-.954l-6.106 2.594z" transform="translate(-512.714 -342.278)" style="fill:url(#yl0d2q9y0x);opacity:.3"/>
                    <path data-name="Path 8705" d="m523.738 369.148.493 2.422 2.836 6.676c.322-.125.639-.26.948-.411l-2.638-6.21z" transform="translate(-510.461 -354.23)" style="fill:url(#sytyi0cgvab);opacity:.3"/>
                    <path data-name="Path 8706" d="m511.9 342.455-.493-2.421-2.836-6.676c-.322.125-.639.261-.948.412l2.638 6.211z" transform="translate(-500.695 -332.542)" style="fill:url(#w0vw9c3d6ac);opacity:.3"/>
                    <path data-name="Path 8707" d="m508.542 368.278-1.829 1.829-3.983 6.021q.414.309.853.583l3.988-6.028z" transform="translate(-497.73 -353.703)" style="fill:url(#d0ozc51fdA);opacity:.3"/>
                    <path data-name="Path 8708" d="m524.733 344.348 1.829-1.829 3.984-6.021q-.414-.309-.853-.583l-3.988 6.028z" transform="translate(-511.064 -334.092)" style="fill:url(#nuboccq6uad);opacity:.3"/>
                    <path data-name="Path 8709" d="m526.587 366.424 1.829 1.829 5.974 3.952c.2-.281.386-.57.561-.868l-5.959-3.943z" transform="translate(-512.187 -352.579)" style="fill:url(#1lsneuv5gC);opacity:.3"/>
                    <path data-name="Path 8710" d="m502.763 350.281-1.829-1.829-5.974-3.952q-.3.421-.561.868l5.96 3.943z" transform="translate(-492.682 -339.294)" style="fill:url(#xm4fablasD);opacity:.3"/>
                    <path data-name="Path 8711" d="M527.546 357.746h2.586l6.968-1.42c-.053-.343-.121-.68-.2-1.013l-6.967 1.419z" transform="translate(-512.768 -345.846)" style="fill:url(#5qf336ni7E);opacity:.3"/>
                    <path data-name="Path 8712" d="M499.973 364.109h-2.586l-6.968 1.419c.053.343.121.68.2 1.013l6.967-1.419z" transform="translate(-490.27 -351.177)" style="fill:url(#k6d2028duF);opacity:.3"/>
                    <path data-name="Path 8713" d="M516.007 341.414v-2.586l-1.452-7.13q-.513.084-1.011.21l1.45 7.12z" transform="translate(-504.283 -331.536)" style="fill:url(#yu1mtl2syae);opacity:.3"/>
                    <path data-name="Path 8714" d="M522.418 369.237v2.586l1.452 7.13q.513-.084 1.011-.21l-1.45-7.119z" transform="translate(-509.661 -354.284)" style="fill:url(#f364lxejiaf);opacity:.3"/>
                </g>
                <ellipse data-name="Ellipse 165" cx="9.765" cy="9.905" rx="9.765" ry="9.905" transform="translate(2.475 2.511)" style="fill:url(#r3xc425dvI)"/>
                <ellipse data-name="Ellipse 166" cx="9.044" cy="9.173" rx="9.044" ry="9.173" transform="translate(3.224 3.195)" style="fill:url(#jjizs05a0J)"/>
                <g data-name="Group 810">
                    <path data-name="Path 8715" d="M514.149 357.989c-2.32-.223-4.044-1.415-4.185-3.688h3.7a.99.99 0 0 0 .486.89v-1.558c-1.724-.477-4.216-1.017-4.216-3.736 0-2.146 1.927-3.323 4.216-3.418v-1.288h.972v1.288c2.461.175 4 1.415 4.138 3.625h-3.746a1.017 1.017 0 0 0-.392-.81v1.542c1.708.557 4.326 1.081 4.326 3.752 0 1.876-1.536 3.37-4.326 3.434v1.272h-.972zm0-7.551v-1.272a.541.541 0 0 0-.486.572.82.82 0 0 0 .486.699zm.972 3.529v1.367a.67.67 0 0 0 .612-.668c-.001-.318-.233-.525-.612-.699z" transform="translate(-502.095 -339.713)" style="fill:url(#jhnqdvy0pK)"/>
                </g>
                <g data-name="Group 811">
                    <path data-name="Path 8716" d="M513.592 357.34c-2.32-.223-4.043-1.415-4.184-3.688h3.7a.991.991 0 0 0 .486.89v-1.558c-1.724-.477-4.216-1.017-4.216-3.736 0-2.146 1.928-3.322 4.216-3.418v-1.288h.972v1.288c2.461.175 4 1.415 4.137 3.625h-3.746a1.017 1.017 0 0 0-.392-.811v1.542c1.708.556 4.326 1.081 4.326 3.752 0 1.876-1.536 3.37-4.326 3.434v1.271h-.972zm0-7.551v-1.272a.542.542 0 0 0-.486.572.821.821 0 0 0 .486.699zm.972 3.529v1.367a.669.669 0 0 0 .611-.667c0-.318-.235-.526-.611-.7z" transform="translate(-501.758 -339.319)" style="fill:url(#rfz3pc4akL)"/>
                </g>
            </g>
        </g>
    </g>
</svg>
